<svg xmlns="http://www.w3.org/2000/svg" xmlns:xlink="http://www.w3.org/1999/xlink" version="1.1" width="256" height="256" viewBox="0 0 256 256" xml:space="preserve">

<defs>
</defs>
<g style="stroke: none; stroke-width: 0; stroke-dasharray: none; stroke-linecap: butt; stroke-linejoin: miter; stroke-miterlimit: 10; fill: none; fill-rule: nonzero; opacity: 1;" transform="translate(1.4065934065934016 1.4065934065934016) scale(2.81 2.81)" >
	<polygon points="29.94,12.7 37.06,0 48.11,9.49 60.63,2.06 65.44,15.8 80,15.63 77.3,29.94 90,37.06 80.51,48.11 87.94,60.63 74.2,65.44 74.37,80 60.06,77.3 52.94,90 41.89,80.51 29.37,87.94 24.56,74.2 10,74.37 12.7,60.06 0,52.94 9.49,41.89 2.06,29.37 15.8,24.56 15.63,10 " style="stroke: none; stroke-width: 1; stroke-dasharray: none; stroke-linecap: butt; stroke-linejoin: miter; stroke-miterlimit: 10; fill: rgb(91,206,149); fill-rule: nonzero; opacity: 1;" transform="  matrix(1 0 0 1 0 0) "/>
	<path d="M 29.482 43.266 c -0.35 -0.751 -1.243 -1.075 -1.993 -0.726 c -0.751 0.35 -1.076 1.243 -0.726 1.993 l 4.828 10.354 L 18.77 47.325 c -0.566 -0.334 -1.284 -0.26 -1.771 0.182 c -0.486 0.441 -0.629 1.148 -0.351 1.744 l 6.871 14.735 c 0.254 0.546 0.795 0.866 1.36 0.866 c 0.212 0 0.428 -0.045 0.633 -0.141 c 0.751 -0.35 1.076 -1.242 0.726 -1.993 l -4.828 -10.353 l 12.821 7.562 c 0.566 0.334 1.283 0.259 1.771 -0.182 c 0.486 -0.441 0.629 -1.148 0.351 -1.744 L 29.482 43.266 z" style="stroke: none; stroke-width: 1; stroke-dasharray: none; stroke-linecap: butt; stroke-linejoin: miter; stroke-miterlimit: 10; fill: rgb(255,255,255); fill-rule: nonzero; opacity: 1;" transform=" matrix(1 0 0 1 0 0) " stroke-linecap="round" />
	<path d="M 49.202 50.355 L 43.06 53.22 l -2.168 -4.649 l 4.851 -2.262 c 0.751 -0.351 1.076 -1.243 0.726 -1.994 c -0.35 -0.75 -1.242 -1.075 -1.993 -0.726 l -4.852 2.262 l -2.168 -4.649 l 6.142 -2.864 c 0.751 -0.35 1.076 -1.243 0.726 -1.993 c -0.35 -0.75 -1.241 -1.075 -1.993 -0.726 l -7.501 3.498 c -0.361 0.168 -0.64 0.473 -0.776 0.846 c -0.136 0.374 -0.118 0.787 0.05 1.147 l 3.435 7.367 c 0 0 0 0.001 0 0.001 c 0 0 0 0 0 0.001 l 3.436 7.367 c 0.254 0.546 0.795 0.866 1.36 0.866 c 0.212 0 0.428 -0.045 0.633 -0.141 l 7.501 -3.498 c 0.751 -0.35 1.076 -1.242 0.726 -1.993 C 50.846 50.33 49.955 50.005 49.202 50.355 z" style="stroke: none; stroke-width: 1; stroke-dasharray: none; stroke-linecap: butt; stroke-linejoin: miter; stroke-miterlimit: 10; fill: rgb(255,255,255); fill-rule: nonzero; opacity: 1;" transform=" matrix(1 0 0 1 0 0) " stroke-linecap="round" />
	<path d="M 70.551 42.375 l -3.974 -16.087 c -0.198 -0.804 -1.016 -1.294 -1.815 -1.096 c -0.805 0.198 -1.296 1.012 -1.097 1.816 l 2.929 11.855 l -6.566 -5.157 c -0.445 -0.35 -1.049 -0.418 -1.561 -0.18 c -0.513 0.239 -0.847 0.746 -0.865 1.311 l -0.271 8.345 l -7.199 -9.864 c -0.489 -0.669 -1.426 -0.817 -2.097 -0.327 c -0.669 0.488 -0.815 1.427 -0.327 2.096 l 9.769 13.385 c 0.288 0.394 0.741 0.615 1.212 0.615 c 0.147 0 0.296 -0.021 0.441 -0.066 c 0.612 -0.188 1.037 -0.745 1.058 -1.385 l 0.316 -9.741 l 7.664 6.019 c 0.505 0.396 1.203 0.427 1.741 0.08 C 70.446 43.647 70.704 42.996 70.551 42.375 z" style="stroke: none; stroke-width: 1; stroke-dasharray: none; stroke-linecap: butt; stroke-linejoin: miter; stroke-miterlimit: 10; fill: rgb(255,255,255); fill-rule: nonzero; opacity: 1;" transform=" matrix(1 0 0 1 0 0) " stroke-linecap="round" />
</g>
</svg>